#!OML:ASF I:\golf\golf\golf 2\Subject 1\2002-09-07\Subject1.ASF
:FULLY-SPECIFIED
:DEGREES
344
root -1.16305 17.9838 -2.91491 39.1399 29.6402 8.81777
lowerback 27.7806 3.65362 6.33596
upperback 9.64477 7.31533 10.2585
thorax -5.10169 3.54831 5.46789
lowerneck -14.1088 -11.117 -4.75937
upperneck -5.63075 -14.2363 6.36038
head 1.40731 -7.02393 1.96915
rclavicle 1.74931e-013 8.90555e-014
rhumerus -15.5527 9.52827 -57.4113
rradius 20.82
rwrist -10.7504
rhand -13.4127 1.80587
rfingers 7.12502
rthumb 12.6953 -27.7882
lclavicle 1.74931e-013 8.90555e-014
lhumerus -36.1552 -53.6843 110.589
lradius 54.0653
lwrist -0.991147
lhand -35.785 12.5894
lfingers 7.12502
lthumb -8.90237 42.3816
rfemur -58.3038 -5.99685 17.6257
rtibia 31.8408
rfoot -4.8249 -12.9145
rtoes 20.1954
lfemur -37.8096 0.632423 -12.0354
ltibia 30.2505
lfoot -13.9853 -1.57874
ltoes -23.6618
345
root -1.13408 17.99 -2.92839 38.421 29.7203 8.33567
lowerback 27.2495 3.556 6.30058
upperback 9.46299 7.14701 10.2604
thorax -5.04503 3.47321 5.56222
lowerneck -14.1063 -11.0268 -4.48436
upperneck -5.94646 -14.1413 6.05836
head 1.24605 -6.98857 1.84874
rclavicle -3.18055e-015 -5.725e-014
rhumerus -16.9707 10.2684 -57.9765
rradius 20.8922
rwrist -10.4639
rhand -12.831 2.5519
rfingers 7.12502
rthumb 13.2561 -27.0066
lclavicle -3.18055e-015 -5.725e-014
lhumerus -36.2573 -53.2297 110.647
lradius 53.7262
lwrist -0.985911
lhand -36.0948 12.1857
lfingers 7.12502
lthumb -9.20125 41.9649
rfemur -57.7659 -5.94386 18.0161
rtibia 31.8667
rfoot -4.76708 -12.7805
rtoes 19.4517
lfemur -37.907 0.566833 -11.8519
ltibia 30.4134
lfoot -14.1227 -1.6569
ltoes -23.8016
346
root -1.10361 17.9953 -2.93516 37.5334 29.6987 7.9304
lowerback 26.7883 3.36256 5.55851
upperback 9.49926 6.72141 10.6679
thorax -4.89151 3.27612 6.604
lowerneck -14.2221 -10.7895 -5.18451
upperneck -6.00206 -13.709 5.76874
head 1.25591 -6.7592 1.89818
rclavicle -4.77083e-014 -2.54444e-014
rhumerus -17.2825 10.6225 -58.0529
rradius 20.3983
rwrist -8.97121
rhand -12.2146 3.31502
rfingers 7.12502
rthumb 13.8502 -26.2038
lclavicle -4.77083e-014 -2.54444e-014
lhumerus -35.6066 -51.4145 110.49
lradius 53.4668
lwrist -1.41002
lhand -35.6078 12.2365
lfingers 7.12502
lthumb -8.73139 42.0359
rfemur -56.9991 -5.90874 18.3138
rtibia 31.926
rfoot -4.84606 -12.589
rtoes 18.7674
lfemur -37.7191 0.478402 -11.7423
ltibia 30.5982
lfoot -14.352 -1.98182
ltoes -22.5485
347
root -1.0751 17.991 -2.94923 36.8569 29.6191 7.5983
lowerback 26.3517 3.51721 6.09345
upperback 9.27211 6.95872 10.1599
thorax -4.82368 3.39344 5.65815
lowerneck -14.8772 -11.0052 -4.17098
upperneck -5.7054 -14.1229 5.55884
head 1.38381 -6.97493 1.59739
rclavicle -6.36111e-014 -1.145e-013
rhumerus -19.0368 8.81785 -58.8686
rradius 20.0715
rwrist -7.59034
rhand -11.7991 3.81449
rfingers 7.12502
rthumb 14.2505 -25.6766
lclavicle -6.36111e-014 -1.145e-013
lhumerus -36.1453 -52.546 110.451
lradius 53.5647
lwrist -1.33371
lhand -34.9482 12.5014
lfingers 7.12502
lthumb -8.09482 42.3264
rfemur -56.4978 -5.89895 18.5456
rtibia 32.0375
rfoot -5.05016 -12.3822
rtoes 18.4654
lfemur -37.6849 0.311735 -11.681
ltibia 30.7108
lfoot -14.6432 -2.3402
ltoes -21.7446
348
root -1.04567 17.9866 -2.96569 36.2884 29.5344 7.2481
lowerback 25.8309 3.57715 6.3697
upperback 9.06661 7.02234 9.80962
thorax -4.72275 3.4282 5.10616
lowerneck -15.5713 -11.1052 -3.57581
upperneck -5.40583 -14.3266 5.43536
head 1.5498 -7.07303 1.4042
rclavicle 1.90833e-014 -4.45278e-014
rhumerus -20.529 8.59399 -59.5219
rradius 20.0805
rwrist -7.3587
rhand -11.6164 4.11986
rfingers 7.12502
rthumb 14.4267 -25.3587
lclavicle 1.90833e-014 -4.45278e-014
lhumerus -36.2338 -53.0079 110.283
lradius 53.4405
lwrist -1.19785
lhand -34.4774 12.5809
lfingers 7.12502
lthumb -7.64037 42.4229
rfemur -56.1685 -5.93452 18.8311
rtibia 32.2037
rfoot -5.27522 -12.1096
rtoes 17.9747
lfemur -37.7368 0.0841911 -11.5654
ltibia 30.7873
lfoot -15.0313 -2.66133
ltoes -21.7806
349
root -1.00832 17.993 -2.96374 35.3325 29.3814 6.92439
lowerback 25.5911 3.59618 6.44578
upperback 9.02877 7.01246 9.54452
thorax -4.60219 3.42803 4.78048
lowerneck -15.7832 -11.2245 -3.14447
upperneck -5.73182 -14.5358 5.63332
head 1.46524 -7.18089 1.38202
rclavicle 6.36111e-015 -5.725e-014
rhumerus -21.7214 8.40115 -60.0487
rradius 20.078
rwrist -7.1562
rhand -11.2888 4.48432
rfingers 7.12502
rthumb 14.7422 -24.9714
lclavicle 6.36111e-015 -5.725e-014
lhumerus -36.1004 -53.2648 110.01
lradius 53.1412
lwrist -0.994413
lhand -34.0786 12.6271
lfingers 7.12502
lthumb -7.25544 42.4828
rfemur -55.3082 -5.96137 19.0428
rtibia 32.3849
rfoot -5.59038 -11.8288
rtoes 17.0268
lfemur -37.1761 -0.140244 -11.5157
ltibia 30.8379
lfoot -15.5212 -2.86988
ltoes -22.2006
350
root -0.979278 17.9908 -2.98065 34.5337 29.234 6.60953
lowerback 25.4213 3.62685 6.46806
upperback 8.89134 7.02639 9.30015
thorax -4.63749 3.43466 4.49495
lowerneck -16.1896 -11.2305 -2.69381
upperneck -5.81056 -14.5978 5.59993
head 1.46824 -7.21281 1.27882
rclavicle 3.81667e-014 6.67916e-014
rhumerus -22.7946 8.33134 -60.5999
rradius 19.9775
rwrist -6.86422
rhand -11.0275 4.5698
rfingers 7.12502
rthumb 14.994 -24.8674
lclavicle 3.81667e-014 6.67916e-014
lhumerus -36.3502 -53.3348 109.8
lradius 53.5626
lwrist -0.827262
lhand -33.8735 12.7732
lfingers 7.12502
lthumb -7.05743 42.6355
rfemur -54.7069 -5.97628 19.2352
rtibia 32.5545
rfoot -5.85843 -11.6208
rtoes 16.7531
lfemur -36.851 -0.22226 -11.5282
ltibia 30.8592
lfoot -15.576 -3.14584
ltoes -22.1379
351
root -0.951942 17.9915 -2.99388 33.5966 29.0819 6.17118
lowerback 25.3054 3.5957 6.42226
upperback 8.73788 6.96994 9.196
thorax -4.7409 3.40553 4.42116
lowerneck -16.2948 -11.2124 -2.7764
upperneck -5.8763 -14.5478 5.80459
head 1.48781 -7.17696 1.3547
rclavicle -3.81667e-014 -6.36111e-015
rhumerus -23.7943 8.76016 -61.0622
rradius 19.9799
rwrist -6.85347
rhand -10.953 4.29099
rfingers 7.12502
rthumb 15.0657 -25.1408
lclavicle -3.81667e-014 -6.36111e-015
lhumerus -36.5569 -53.1641 109.833
lradius 53.3446
lwrist -0.600828
lhand -33.9494 12.6492
lfingers 7.12502
lthumb -7.13073 42.5091
rfemur -53.9821 -5.88928 19.5067
rtibia 32.6995
rfoot -6.17291 -11.441
rtoes 17.1271
lfemur -36.3743 -0.257157 -11.3825
ltibia 30.8107
lfoot -15.4658 -3.63835
ltoes -21.0874
352
root -0.920111 17.9967 -2.99357 32.4647 28.8487 5.71854
lowerback 25.2221 3.54135 6.19597
upperback 8.66418 6.84799 9.18478
thorax -4.80265 3.34625 4.57194
lowerneck -16.2863 -11.1236 -2.98143
upperneck -5.93294 -14.3859 5.92047
head 1.48926 -7.08636 1.43717
rclavicle -3.18055e-014 -7.95139e-015
rhumerus -24.6043 8.95396 -61.2678
rradius 19.9274
rwrist -6.63417
rhand -10.833 4.28009
rfingers 7.12502
rthumb 15.1813 -25.143
lclavicle -3.18055e-014 -7.95139e-015
lhumerus -36.7308 -52.7352 109.88
lradius 53.0631
lwrist -0.407074
lhand -33.9775 12.45
lfingers 7.12502
lthumb -7.1578 42.309
rfemur -52.9771 -5.7734 19.7623
rtibia 32.835
rfoot -6.45798 -11.1624
rtoes 17.3556
lfemur -35.6053 -0.290916 -11.2128
ltibia 30.8216
lfoot -15.6048 -4.33383
ltoes -19.701
353
root -0.883948 18.0032 -2.98817 31.3673 28.6087 5.32257
lowerback 25.0507 3.47251 5.9485
upperback 8.62426 6.68754 9.1507
thorax -4.77963 3.27082 4.72633
lowerneck -16.3014 -11.0373 -3.11809
upperneck -5.99586 -14.2385 6.03074
head 1.48649 -7.00436 1.50558
rclavicle 1.90833e-014 -2.06736e-014
rhumerus -25.3281 9.09213 -61.4702
rradius 19.8444
rwrist -6.44773
rhand -10.8375 4.53922
rfingers 7.12502
rthumb 15.177 -24.8842
lclavicle 1.90833e-014 -2.06736e-014
lhumerus -36.796 -52.3032 109.808
lradius 52.8385
lwrist -0.22844
lhand -33.8236 12.2994
lfingers 7.12502
lthumb -7.0093 42.1634
rfemur -51.9518 -5.71612 19.9855
rtibia 32.9664
rfoot -6.6923 -10.8543
rtoes 17.3411
lfemur -34.8327 -0.210399 -11.1472
ltibia 30.8859
lfoot -15.8401 -5.22123
ltoes -18.6378
354
root -0.843548 18 -3.00142 30.8232 28.4803 5.0803
lowerback 24.3611 3.33851 5.80514
upperback 8.5037 6.41761 9.07785
thorax -4.56446 3.14771 4.8321
lowerneck -16.4574 -10.979 -3.29779
upperneck -5.98921 -14.1197 6.13445
head 1.53461 -6.9328 1.56711
rclavicle -7.31528e-014 2.06736e-014
rhumerus -26.0423 9.57479 -61.7147
rradius 20.0283
rwrist -6.86418
rhand -10.766 4.75628
rfingers 7.12502
rthumb 15.2459 -24.6619
lclavicle -7.31528e-014 2.06736e-014
lhumerus -36.7097 -51.7889 109.631
lradius 52.7376
lwrist -0.035565
lhand -33.4344 12.3071
lfingers 7.12502
lthumb -6.63357 42.1832
rfemur -51.5415 -5.91046 20.1902
rtibia 33.0897
rfoot -6.82557 -10.513
rtoes 17.3955
lfemur -34.7246 -0.455891 -11.1075
ltibia 31.0396
lfoot -15.9507 -5.8543
ltoes -17.8525
